<svg height="512" viewBox="0 0 512 512" width="512" xmlns="http://www.w3.org/2000/svg"><g id="flat"><path d="m48 208v40l-15 32 23 16 16-40v-48z" fill="#fdc9a6"/><path d="m128 136 7.086 1.771a62 62 0 0 1 38.127 28.25l10.787 17.979-32 16v56h-80v-48h-32v-14.024a62 62 0 0 1 38.974-57.566l1.026-.41z" fill="#e82f3e"/><path d="m328 184-32 40-32 16 8 24h16l40-30z" fill="#fdc9a6"/><path d="m344 128 28.959 4.827a52 52 0 0 1 31.4 18l27.641 33.173-24 24-16-16v48h-64v-64l-3.025-6.05a18 18 0 0 1 1.7-18.85z" fill="#0296e5"/><g fill="#fdc9a6"><path d="m296 108.844v22.312a24 24 0 0 0 10.687 19.969 24 24 0 0 0 26.626 0 24 24 0 0 0 10.687-19.969v-22.312a24 24 0 0 0 -10.687-19.969 24 24 0 0 0 -26.626 0 24 24 0 0 0 -10.687 19.969z"/><path d="m80 97.689v22.311a24 24 0 0 0 10.687 19.969 24 24 0 0 0 26.626 0 24 24 0 0 0 10.687-19.969v-22.311a24 24 0 0 0 -10.687-19.969 24 24 0 0 0 -26.626 0 24 24 0 0 0 -10.687 19.969z"/><path d="m408 208 24 40v16l16 8 16-16-32-72z"/></g><path d="m328 240-16 88h48v-24l8 24h40v-49.373a54.626 54.626 0 0 0 -16-38.627z" fill="#026ca2"/><path d="m320 328-7.391 36.954a10.007 10.007 0 0 0 .614 5.9l22.777 53.146h32l-24-56 13-40z" fill="#fdc9a6"/><path d="m448 376h-63.529a10 10 0 0 1 -9.864-8.356l-6.607-39.644h39l1 16h40z" fill="#fdc9a6"/><path d="m72 256-32 64 8 2.667 40 13.333 16-32 16.573 41.433 47.427-9.433-16-80z" fill="#0bafea"/><path d="m120 416-24 40h-24v-40l24-24z" fill="#cbcbcb"/><path d="m88 336-16 24 24 32-24 24-36.729-51.421a10 10 0 0 1 -1.054-9.751l13.783-32.161z" fill="#fdc9a6"/><path d="m200 408-32-72-40 8 48 72z" fill="#fdc9a6"/><path d="m176 416v40h40l-16-48z" fill="#cbcbcb"/><path d="m184 184 16 24 16 56-24 16-16-16 8-16-8-24-24-24z" fill="#fdc9a6"/><path d="m336 424-24 16v16h56v-32z" fill="#cbcbcb"/><path d="m448 376 16 24 24-1.926v-54.074h-40z" fill="#cbcbcb"/><path d="m344 108.844h-48l-9.978-27.967a20.229 20.229 0 0 1 10.006-24.891 20.229 20.229 0 0 1 25.878 6.873l6.094 9.141h11.13a17.857 17.857 0 0 1 16.94 12.209 17.857 17.857 0 0 1 -5.762 19.571z" fill="#683b0d"/><path d="m128 97.689h-48v-.218a23.782 23.782 0 0 1 23.782-23.782h.437a23.783 23.783 0 0 1 23.781 24z" fill="#683b0d"/><circle cx="239" cy="408" fill="#fbb540" r="48"/><path d="m287 408a48.223 48.223 0 0 0 -.67-8.02l-33.25-.04 17.07-28.45a47.637 47.637 0 0 0 -13.73-8.23l-17.46 29.12-17.46-29.09a47.593 47.593 0 0 0 -13.71 8.25l17.02 28.36-33.12-.04a48.47 48.47 0 0 0 -.05 16l33.2.05-17.11 28.5a47.6 47.6 0 0 0 13.7 8.27l17.53-29.2 17.54 29.23a47.593 47.593 0 0 0 13.71-8.25l-17.11-28.52 33.24.05a48.948 48.948 0 0 0 .66-7.99z" fill="#d18d28"/><path d="m250.314 388.404h-22.628l-11.313 19.596 11.313 19.596h22.628l11.313-19.596z" fill="#d18d28"/></g></svg>