<svg width="26" height="29" viewBox="0 0 26 29" fill="none" xmlns="http://www.w3.org/2000/svg">
<path d="M25.5 29L18.9375 22.75L19.725 25.25H3.62498C2.79618 25.25 2.00133 24.9208 1.41528 24.3347C0.829225 23.7487 0.499985 22.9538 0.499985 22.125V3.375C0.499985 2.5462 0.829225 1.75134 1.41528 1.16529C2.00133 0.57924 2.79618 0.25 3.62498 0.25H22.375C23.2038 0.25 23.9986 0.57924 24.5847 1.16529C25.1707 1.75134 25.5 2.5462 25.5 3.375V29ZM13 7.5C9.64999 7.5 7.29999 8.9375 7.29999 8.9375C8.58749 7.7875 10.8375 7.125 10.8375 7.125L10.625 6.9125C8.51249 6.95 6.59999 8.4125 6.59999 8.4125C4.44999 12.9 4.58749 16.775 4.58749 16.775C6.33749 19.0375 8.93749 18.875 8.93749 18.875L9.82499 17.75C8.26249 17.4125 7.27499 16.025 7.27499 16.025C7.27499 16.025 9.62499 17.625 13 17.625C16.375 17.625 18.725 16.025 18.725 16.025C18.725 16.025 17.7375 17.4125 16.175 17.75L17.0625 18.875C17.0625 18.875 19.6625 19.0375 21.4125 16.775C21.4125 16.775 21.55 12.9 19.4 8.4125C19.4 8.4125 17.4875 6.95 15.375 6.9125L15.1625 7.125C15.1625 7.125 17.4125 7.7875 18.7 8.9375C18.7 8.9375 16.35 7.5 13 7.5ZM10.4125 12.2375C11.225 12.2375 11.8875 12.95 11.875 13.825C11.875 14.6875 11.225 15.4125 10.4125 15.4125C9.61249 15.4125 8.96249 14.6875 8.96249 13.825C8.96249 12.95 9.59999 12.2375 10.4125 12.2375ZM15.625 12.2375C16.4375 12.2375 17.0875 12.95 17.0875 13.825C17.0875 14.6875 16.4375 15.4125 15.625 15.4125C14.825 15.4125 14.175 14.6875 14.175 13.825C14.175 12.95 14.8125 12.2375 15.625 12.2375Z" fill="white"/>
</svg>
