<svg id="_x35_0" enable-background="new 0 0 512 512" height="512" viewBox="0 0 512 512" width="512" xmlns="http://www.w3.org/2000/svg"><g><circle cx="256" cy="256" fill="#e9465e" r="256"/><g><path d="m428.33 192.286c2.287.097 4.351-1.347 4.943-3.558l1.806-6.74c.689-2.57-.837-5.212-3.407-5.9l-339.612-90.999c-2.57-.689-5.212.837-5.901 3.407l-1.806 6.74c-.592 2.21.473 4.493 2.502 5.553 7.166 3.74 11.04 12.068 8.861 20.2-2.179 8.133-9.698 13.408-17.774 13.064-2.287-.097-4.351 1.347-4.943 3.558l-2.464 9.195c-.592 2.21.473 4.493 2.502 5.553 7.166 3.74 11.04 12.068 8.861 20.2s-9.698 13.407-17.774 13.063c-2.287-.097-4.351 1.347-4.943 3.558l-2.464 9.195c-.592 2.21.473 4.494 2.502 5.553 7.166 3.74 11.04 12.068 8.861 20.2s-9.698 13.408-17.774 13.064c-2.287-.097-4.351 1.347-4.943 3.558l-1.806 6.74c-.689 2.57.837 5.212 3.407 5.901l339.613 90.999c2.57.689 5.212-.837 5.901-3.407l1.806-6.74c.592-2.21-.473-4.493-2.502-5.553-7.166-3.74-11.04-12.068-8.861-20.2s9.698-13.407 17.774-13.063c2.287.097 4.351-1.347 4.943-3.558l2.464-9.195c.592-2.21-.473-4.494-2.502-5.553-7.165-3.74-11.04-12.068-8.861-20.2s9.698-13.408 17.774-13.064c2.287.097 4.351-1.347 4.943-3.558l2.464-9.195c.592-2.21-.473-4.494-2.502-5.553-7.166-3.74-11.04-12.068-8.861-20.2 2.178-8.133 9.698-13.409 17.773-13.065z" fill="#ea7589"/><g><g><path d="m147.188 178.839h249.612v174.238h-249.612z" fill="#fbd9a3"/><path d="m271.975 178.839h124.825v174.238h-124.825z" fill="#faefdc"/><path d="m434.968 319.346c0-8.419 5.898-15.46 13.787-17.219 2.234-.498 3.854-2.427 3.854-4.716v-9.52c0-2.289-1.62-4.218-3.854-4.716-7.889-1.758-13.787-8.799-13.787-17.219s5.898-15.461 13.787-17.219c2.234-.498 3.854-2.427 3.854-4.716v-9.519c0-2.289-1.62-4.218-3.854-4.716-7.889-1.758-13.787-8.8-13.787-17.219s5.898-15.46 13.787-17.218c2.234-.498 3.854-2.427 3.854-4.716v-6.978c0-2.661-2.157-4.818-4.818-4.818h-50.991v174.238h50.991c2.661 0 4.818-2.157 4.818-4.818v-6.978c0-2.289-1.62-4.218-3.854-4.716-7.89-1.756-13.787-8.798-13.787-17.217z" fill="#fbcb74"/><path d="m109.021 319.346c0-8.419-5.898-15.46-13.787-17.219-2.234-.497-3.854-2.427-3.854-4.715v-9.52c0-2.289 1.62-4.218 3.854-4.716 7.889-1.758 13.787-8.799 13.787-17.219s-5.898-15.461-13.787-17.219c-2.234-.498-3.854-2.427-3.854-4.716v-9.519c0-2.289 1.62-4.218 3.854-4.716 7.889-1.758 13.787-8.8 13.787-17.219s-5.898-15.46-13.787-17.218c-2.234-.498-3.854-2.427-3.854-4.716v-6.978c0-2.661 2.157-4.818 4.818-4.818h50.991v174.238h-50.992c-2.661 0-4.818-2.157-4.818-4.818v-6.978c0-2.289 1.62-4.218 3.854-4.716 7.89-1.757 13.788-8.799 13.788-17.218z" fill="#deb36f"/></g><g><path d="m396.8 342.327c-2.613 0-4.732-2.118-4.732-4.732v-11.357c0-2.614 2.119-4.732 4.732-4.732s4.732 2.118 4.732 4.732v11.357c0 2.613-2.118 4.732-4.732 4.732zm0-34.072c-2.613 0-4.732-2.118-4.732-4.732v-11.357c0-2.614 2.119-4.732 4.732-4.732s4.732 2.118 4.732 4.732v11.357c0 2.614-2.118 4.732-4.732 4.732zm0-34.071c-2.613 0-4.732-2.118-4.732-4.732v-11.357c0-2.614 2.119-4.732 4.732-4.732s4.732 2.118 4.732 4.732v11.357c0 2.613-2.118 4.732-4.732 4.732zm0-34.072c-2.613 0-4.732-2.118-4.732-4.732v-11.357c0-2.614 2.119-4.732 4.732-4.732s4.732 2.118 4.732 4.732v11.357c0 2.614-2.118 4.732-4.732 4.732zm0-34.072c-2.613 0-4.732-2.118-4.732-4.732v-11.357c0-2.614 2.119-4.732 4.732-4.732s4.732 2.118 4.732 4.732v11.357c0 2.614-2.118 4.732-4.732 4.732z" fill="#f39e22"/></g><g fill="#3f6c8e"><path d="m374.216 261.248h-55.78c-2.134 0-3.865 1.73-3.865 3.865 0 2.134 1.73 3.865 3.865 3.865h55.78c2.134 0 3.865-1.73 3.865-3.865-.001-2.135-1.731-3.865-3.865-3.865z"/><path d="m374.216 244.01h-55.78c-2.134 0-3.865 1.73-3.865 3.865 0 2.134 1.73 3.865 3.865 3.865h55.78c2.134 0 3.865-1.73 3.865-3.865-.001-2.135-1.731-3.865-3.865-3.865z"/><path d="m374.216 225.081h-55.78c-2.134 0-3.865 1.73-3.865 3.865 0 2.134 1.73 3.865 3.865 3.865h55.78c2.134 0 3.865-1.73 3.865-3.865-.001-2.135-1.731-3.865-3.865-3.865z"/><path d="m374.216 206.152h-55.78c-2.134 0-3.865 1.73-3.865 3.865 0 2.134 1.73 3.865 3.865 3.865h55.78c2.134 0 3.865-1.73 3.865-3.865-.001-2.134-1.731-3.865-3.865-3.865z"/><path d="m374.216 280.177h-55.78c-2.134 0-3.865 1.73-3.865 3.865 0 2.134 1.73 3.865 3.865 3.865h55.78c2.134 0 3.865-1.73 3.865-3.865-.001-2.135-1.731-3.865-3.865-3.865z"/><path d="m374.216 299.105h-55.78c-2.134 0-3.865 1.73-3.865 3.865 0 2.134 1.73 3.865 3.865 3.865h55.78c2.134 0 3.865-1.73 3.865-3.865-.001-2.135-1.731-3.865-3.865-3.865z"/><path d="m374.216 318.034h-55.78c-2.134 0-3.865 1.73-3.865 3.865 0 2.134 1.73 3.865 3.865 3.865h55.78c2.134 0 3.865-1.73 3.865-3.865-.001-2.135-1.731-3.865-3.865-3.865z"/></g><g><g><circle cx="235.972" cy="265.968" fill="#c1b7d3" r="63.794"/><path d="m285.008 225.16c-5.791-6.952-13.03-12.652-21.255-16.635-8.399-4.071-17.825-6.351-27.781-6.351-1.964 0-3.911.087-5.828.262-3.892 4.493-7.17 9.534-9.694 14.995v.004c-3.765 8.134-5.864 17.195-5.864 26.748 0 26.69 16.388 49.549 39.651 59.069 7.45 3.045 15.602 4.725 24.143 4.725 1.964 0 3.907-.087 5.828-.262 2.481-2.863 4.714-5.951 6.661-9.229 3.514-5.922 6.097-12.459 7.552-19.414.88-4.231 1.346-8.61 1.346-13.103-.001-15.52-5.545-29.75-14.759-40.809z" fill="#f4e6f4"/></g><g><g><path d="m235.972 207.028c15.743 0 30.545 6.131 41.677 17.263s17.263 25.933 17.263 41.677c0 15.743-6.131 30.545-17.263 41.677s-25.933 17.263-41.677 17.263-30.545-6.131-41.677-17.263-17.263-25.933-17.263-41.677c0-15.743 6.131-30.545 17.263-41.677 11.133-11.132 25.934-17.263 41.677-17.263m0-4.854c-35.232 0-63.794 28.562-63.794 63.794s28.562 63.794 63.794 63.794 63.794-28.562 63.794-63.794-28.561-63.794-63.794-63.794z" fill="#746087"/><path d="m299.716 263.5c-.332-8.971-2.581-17.858-6.585-25.888-11.555-23.471-36.943-37.678-62.992-35.175-1.501 1.731-2.912 3.551-4.219 5.44 56.818-9.097 91.782 59.227 51.407 100.088 1.618-1.637 4.62-.045 6.88-.251 10.545-12.068 16.195-28.201 15.509-44.214z" fill="#c2aacf"/></g><g><g><path d="m208.92 262.806c-.281 0-.567-.044-.849-.136l-10.471-3.425c-1.432-.469-2.213-2.009-1.745-3.441.469-1.432 2.01-2.214 3.441-1.745l10.471 3.425c1.432.469 2.213 2.009 1.745 3.441-.376 1.15-1.444 1.881-2.592 1.881z" fill="#746087"/></g><g><path d="m235.957 243.114c-1.507 0-2.728-1.221-2.728-2.728v-13.082c0-1.507 1.222-2.728 2.728-2.728 1.507 0 2.728 1.221 2.728 2.728v13.082c0 1.506-1.222 2.728-2.728 2.728z" fill="#c2aacf"/></g><g><path d="m263.011 262.761c-1.163 0-2.24-.749-2.604-1.918-.448-1.439.355-2.968 1.794-3.416l10.515-3.274c1.438-.447 2.968.355 3.416 1.794s-.355 2.968-1.794 3.416l-10.515 3.274c-.27.084-.543.124-.812.124z" fill="#c2aacf"/></g><g><path d="m257.178 301.037c-.86 0-1.707-.406-2.238-1.164l-4.525-6.468c-.864-1.235-.563-2.936.672-3.799 1.234-.864 2.936-.563 3.799.672l4.525 6.468c.864 1.235.563 2.936-.672 3.799-.475.332-1.021.492-1.561.492z" fill="#c2aacf"/></g><g><path d="m214.584 300.914c-.574 0-1.152-.18-1.645-.553-1.201-.91-1.437-2.621-.528-3.822l4.772-6.301c.91-1.201 2.621-1.438 3.822-.528s1.437 2.621.528 3.822l-4.772 6.301c-.536.708-1.352 1.081-2.177 1.081z" fill="#746087"/></g></g></g><g><path d="m227.598 329.216c-19.731-2.586-36.624-14.191-46.41-30.542l29.974-1.386c2.579-.119 4.942 1.436 5.853 3.852z" fill="#3e4e60"/><path d="m196.492 259.832-22.942 19.344c-.899-4.263-1.371-8.68-1.371-13.208 0-15.478 5.515-29.673 14.689-40.72l11.303 27.782c.973 2.391.295 5.138-1.679 6.802z" fill="#3e4e60"/><g><path d="m299.766 265.968c0 4.493-.466 8.872-1.346 13.103l-22.977-19.306c-1.977-1.661-2.66-4.406-1.691-6.8l11.256-27.805c9.214 11.059 14.758 25.289 14.758 40.808z" fill="#3e4e60"/><path d="m299.766 265.968c0 4.493-.466 8.872-1.346 13.103l-22.977-19.306c-1.977-1.661-2.66-4.406-1.691-6.8l11.256-27.805c9.214 11.059 14.758 25.289 14.758 40.808z" fill="#3f6c8e"/></g><g><path d="m232.469 241.524-21.371 15.527c-2.089 1.518-2.963 4.208-2.165 6.664l8.163 25.124c.798 2.456 3.086 4.119 5.669 4.119h26.417c2.582 0 4.871-1.663 5.669-4.119l8.163-25.124c.798-2.456-.076-5.146-2.165-6.664l-21.371-15.527c-2.091-1.518-4.92-1.518-7.009 0z" fill="#3e4e60"/><path d="m263.011 263.716-8.163 25.122c-.797 2.455-3.085 4.118-5.668 4.118h-11.92c-11.506-9.709-19.531-23.416-21.928-38.981l17.137-12.452c2.088-1.517 4.918-1.517 7.006 0l21.371 15.529c2.089 1.517 2.965 4.209 2.165 6.664z" fill="#3f6c8e"/></g><g><path d="m290.868 298.485c-1.946 3.278-4.18 6.366-6.661 9.229-9.927 11.462-23.867 19.349-39.64 21.473l9.669-25.937.811-2.175c.902-2.419 3.26-3.982 5.839-3.872z" fill="#3e4e60"/><path d="m290.868 298.485c-1.946 3.278-4.18 6.366-6.661 9.229-1.921.175-3.863.262-5.828.262-8.541 0-16.693-1.681-24.143-4.725l.811-2.175c.902-2.419 3.259-3.98 5.838-3.871z" fill="#3f6c8e"/></g><g><path d="m263.753 208.525-24.278 17.64c-2.089 1.518-4.918 1.518-7.007 0l-12.018-8.731v-.004l-12.259-8.905c6.741-3.267 14.143-5.38 21.953-6.089 1.917-.175 3.863-.262 5.828-.262 9.956 0 19.382 2.281 27.781 6.351z" fill="#3e4e60"/><path d="m263.753 208.525-24.278 17.639c-2.088 1.517-4.918 1.521-7.006 0l-12.019-8.73v-.004c2.525-5.46 5.802-10.502 9.694-14.995 1.917-.175 3.863-.262 5.828-.262 9.956.001 19.382 2.282 27.781 6.352z" fill="#3f6c8e"/></g></g><circle cx="260.283" cy="232.632" fill="#fff" r="13.041"/></g></g></g></g></svg>