<svg width="500" height="171" viewBox="0 0 500 171" fill="none" xmlns="http://www.w3.org/2000/svg">
<g clip-path="url(#clip0)">
<path d="M7.80914 4.25093H39.3711C40.4123 4.98846 41.9307 11.0622 43.9264 22.4723L53.3624 72.2555H54.9894C55.4232 72.2555 58.8939 54.468 65.4015 18.8931C66.9634 9.13164 68.1564 4.25093 68.9807 4.25093H103.796L104.773 5.22707V95.3575C104.946 100.13 104.295 102.299 102.82 101.865H84.599C83.0806 101.865 82.3213 100.13 82.3213 96.6591V35.4875L81.4103 34.186H80.0437C79.0025 34.186 74.2302 56.5288 65.7269 101.214L64.7508 101.865H44.2518C43.2106 101.865 38.4383 79.6308 29.935 35.1621L28.6335 33.9907C27.1584 34.0341 26.3992 34.533 26.3558 35.4875V98.286C26.4426 100.759 25.9003 101.952 24.7289 101.865H6.18223C5.31455 101.561 4.88071 100.585 4.88071 98.9367V7.17936C5.14102 5.22707 6.11716 4.25093 7.80914 4.25093ZM116.161 4.25093H172.452L173.428 5.22707V19.8692C173.428 21.3877 172.669 22.1469 171.15 22.1469H138.938C137.636 22.1469 136.985 22.7976 136.985 24.0992V41.019L137.961 41.9951H165.293C167.246 41.9951 168.222 42.7543 168.222 44.2728V58.2641C168.222 59.5657 167.571 60.2164 166.27 60.2164H138.938C137.636 60.2164 136.985 60.8672 136.985 62.1687V78.4377C136.985 82.1254 139.805 83.9692 145.445 83.9692H172.777C174.296 83.9692 175.055 84.7284 175.055 86.2469V100.889L174.079 101.865H132.105C125.901 100.217 121.237 96.9628 118.113 92.1037C115.944 87.7219 114.859 83.492 114.859 79.4139V8.1555C114.859 5.55245 115.293 4.25093 116.161 4.25093ZM185.857 4.25093H217.094C218.309 5.20538 221.237 13.0145 225.879 27.6783L236.617 59.5657H237.593L237.528 6.7889C237.918 5.09692 238.374 4.25093 238.895 4.25093H261.02L261.997 5.22707V100.889L261.02 101.865H230.76C229.372 101.865 228.396 100.347 227.832 97.3098L210.586 46.2251H209.61V49.1535V99.2621C209.61 100.997 208.96 101.865 207.658 101.865H185.857L184.881 100.889V5.22707L185.857 4.25093ZM292.647 4.25093H326.812C328.852 4.25093 330.153 7.83012 330.717 14.9885L347.637 100.564C347.42 101.431 346.769 101.865 345.685 101.865H325.511C323.776 101.865 322.691 99.2621 322.257 94.056C320.825 84.6851 319.741 79.5874 319.003 78.7631H308.917H300.457C299.632 78.7631 298.222 86.03 296.227 100.564L294.925 101.865H272.799L271.823 100.889C278.114 69.0885 282.778 43.9257 285.814 25.4007L290.044 5.55245C290.955 4.68477 291.823 4.25093 292.647 4.25093ZM301.107 60.5418L301.433 60.8672H313.797L314.448 60.2164L308.266 25.7261L307.94 25.4007H307.615C306.617 25.4007 305.619 29.1968 304.621 36.789C302.279 49.8476 301.107 57.7652 301.107 60.5418ZM373.407 4.25093H417.333L418.31 5.22707V20.52C418.31 22.2553 417.225 23.123 415.056 23.123H386.422C383.602 23.123 381.867 24.533 381.216 27.353V78.7631C382.301 80.5853 383.385 81.7783 384.47 82.3423H395.858C397.16 82.3423 397.811 81.6916 397.811 80.39V48.5027C397.811 48.1123 398.461 47.57 399.763 46.8758L400.088 47.2012H418.96C420.696 47.2012 421.563 48.0689 421.563 49.8042V98.9367C421.563 100.585 421.129 101.561 420.262 101.865H377.312C369.416 99.9563 363.993 96.594 361.043 91.7784C358.656 87.44 357.463 83.9692 357.463 81.3662V23.7738C357.463 19.5221 359.849 14.6414 364.622 9.13164C368.743 6.22491 371.672 4.598 373.407 4.25093ZM447.333 4.25093H479.546C483.407 5.03184 487.203 7.30951 490.935 11.0839C494.188 15.6826 495.815 19.3703 495.815 22.1469L496.141 30.9322V72.5809C496.141 84.0777 495.273 89.8261 493.538 89.8261C491.932 93.6873 488.462 97.2665 483.125 100.564L479.546 101.865H447.333C441.216 99.8261 436.444 95.8131 433.017 89.8261C431.932 87.7003 431.39 84.4464 431.39 80.0647V25.7261C431.39 14.88 436.704 7.72166 447.333 4.25093ZM455.143 27.353V76.1601C455.143 80.2816 456.444 82.3423 459.047 82.3423C467.29 82.7762 471.412 81.6916 471.412 79.0885L471.737 76.1601V28.3291C471.954 25.0753 470.652 23.2315 467.832 22.7976H458.071C455.685 23.6653 454.709 25.1838 455.143 27.353Z" fill="url(#paint0_linear)"/>
<path d="M266.433 115.171H278.929C279.718 115.171 280.112 115.903 280.112 117.366V141.008V153.335C280.224 154.911 281.012 155.699 282.476 155.699H300.038C301.276 155.699 301.896 156.206 301.896 157.219V165.325L301.389 165.831H276.396C273.92 165.539 271.218 164.075 268.291 161.441C266.602 158.942 265.758 156.634 265.758 154.517V116.691C265.758 115.835 265.983 115.329 266.433 115.171ZM307.637 115.171H336.851L337.358 115.678V123.277C337.358 124.065 336.964 124.459 336.176 124.459H319.458C318.782 124.459 318.445 124.796 318.445 125.472V134.253L318.951 134.76H333.136C334.149 134.76 334.656 135.154 334.656 135.942V143.203C334.656 143.879 334.318 144.216 333.643 144.216H319.458C318.782 144.216 318.445 144.554 318.445 145.23V153.673C318.445 155.587 319.908 156.544 322.835 156.544H337.02C337.808 156.544 338.202 156.938 338.202 157.726V165.325L337.696 165.831H315.912C312.692 164.976 310.271 163.287 308.65 160.765C307.525 158.491 306.962 156.296 306.962 154.18V117.197C306.962 115.846 307.187 115.171 307.637 115.171ZM354.11 115.171H371.841C372.899 115.171 373.575 117.028 373.867 120.744L382.649 165.156C382.536 165.606 382.198 165.831 381.635 165.831H371.165C370.265 165.831 369.702 164.481 369.477 161.779C368.734 156.915 368.171 154.27 367.788 153.842H362.553H358.163C357.735 153.842 357.003 157.613 355.967 165.156L355.292 165.831H343.809L343.302 165.325C346.567 148.821 348.987 135.762 350.563 126.147L352.759 115.846C353.232 115.396 353.682 115.171 354.11 115.171ZM358.5 144.385L358.669 144.554H365.086L365.424 144.216L362.215 126.316L362.047 126.147H361.878C361.36 126.147 360.842 128.117 360.324 132.058C359.108 138.835 358.5 142.944 358.5 144.385ZM396.023 115.171H418.82L419.327 115.678V123.614C419.327 124.515 418.764 124.965 417.638 124.965H402.778C401.314 124.965 400.413 125.697 400.076 127.161V153.842C400.639 154.787 401.202 155.407 401.764 155.699H407.675C408.35 155.699 408.688 155.362 408.688 154.686V138.137C408.688 137.934 409.026 137.653 409.701 137.293L409.87 137.462H419.664C420.565 137.462 421.015 137.912 421.015 138.812V164.312C421.015 165.167 420.79 165.674 420.34 165.831H398.049C393.951 164.841 391.137 163.096 389.606 160.597C388.368 158.345 387.748 156.544 387.748 155.193V125.303C387.748 123.096 388.987 120.563 391.463 117.704C393.602 116.195 395.122 115.351 396.023 115.171ZM427.297 115.171H437.767C438.218 115.329 438.443 115.835 438.443 116.691L438.274 153.335C438.859 155.136 439.816 156.037 441.145 156.037H444.522C445.355 156.037 446.199 155.362 447.055 154.011V116.691C447.055 115.835 447.28 115.329 447.73 115.171H458.2C458.988 115.171 459.382 115.621 459.382 116.522V154.348C459.382 158.536 457.412 161.914 453.472 164.481L449.588 165.831H435.741C432.003 164.773 429.414 163.085 427.973 160.765C427.432 160.765 426.87 158.739 426.284 154.686L426.115 116.353C426.25 115.565 426.644 115.171 427.297 115.171ZM465.158 115.171H494.372L494.879 115.678V123.277C494.879 124.065 494.484 124.459 493.696 124.459H476.978C476.303 124.459 475.965 124.796 475.965 125.472V134.253L476.472 134.76H490.657C491.67 134.76 492.177 135.154 492.177 135.942V143.203C492.177 143.879 491.839 144.216 491.163 144.216H476.978C476.303 144.216 475.965 144.554 475.965 145.23V153.673C475.965 155.587 477.429 156.544 480.356 156.544H494.541C495.329 156.544 495.723 156.938 495.723 157.726V165.325L495.216 165.831H473.432C470.212 164.976 467.792 163.287 466.171 160.765C465.045 158.491 464.482 156.296 464.482 154.18V117.197C464.482 115.846 464.707 115.171 465.158 115.171Z" fill="#CCCCCC"/>
</g>
<defs>
<linearGradient id="paint0_linear" x1="251.743" y1="-21.1348" x2="251.743" y2="130.652" gradientUnits="userSpaceOnUse">
<stop stop-color="white"/>
<stop offset="1" stop-color="white" stop-opacity="0.65"/>
</linearGradient>
<clipPath id="clip0">
<rect width="499.551" height="171" fill="white"/>
</clipPath>
</defs>
</svg>
