<svg width="28" height="22" viewBox="0 0 28 22" fill="none" xmlns="http://www.w3.org/2000/svg">
<path d="M26.1875 0.6875H1.8125C1.29395 0.6875 0.875 1.10645 0.875 1.625V20.375C0.875 20.8936 1.29395 21.3125 1.8125 21.3125H26.1875C26.7061 21.3125 27.125 20.8936 27.125 20.375V1.625C27.125 1.10645 26.7061 0.6875 26.1875 0.6875ZM23.8203 3.87793L14.5771 11.0703C14.3486 11.249 14.0293 11.249 13.8008 11.0703L4.55469 3.87793C4.51983 3.85103 4.49427 3.8139 4.48158 3.77174C4.46889 3.72958 4.4697 3.68451 4.48392 3.64284C4.49813 3.60117 4.52503 3.56499 4.56083 3.53938C4.59664 3.51376 4.63957 3.49999 4.68359 3.5H23.6914C23.7354 3.49999 23.7784 3.51376 23.8142 3.53938C23.85 3.56499 23.8769 3.60117 23.8911 3.64284C23.9053 3.68451 23.9061 3.72958 23.8934 3.77174C23.8807 3.8139 23.8552 3.85103 23.8203 3.87793Z" fill="white"/>
</svg>
