<?xml version="1.0" encoding="iso-8859-1"?>
<!-- Generator: Adobe Illustrator 19.0.0, SVG Export Plug-In . SVG Version: 6.00 Build 0)  -->
<svg version="1.1" id="Layer_1" xmlns="http://www.w3.org/2000/svg" xmlns:xlink="http://www.w3.org/1999/xlink" x="0px" y="0px"
	 viewBox="0 0 297 297" style="enable-background:new 0 0 297 297;" xml:space="preserve">
<g>
	<g>
		<g>
			<path d="M108.883,0H25.714C11.535,0,0,11.535,0,25.714v83.169c0,14.179,11.535,25.714,25.714,25.714h83.169
				c14.179,0,25.714-11.535,25.714-25.714V25.714C134.598,11.535,123.062,0,108.883,0z M113.682,108.883
				c0,2.646-2.153,4.799-4.799,4.799H25.714c-2.646,0-4.799-2.153-4.799-4.799V25.714c0-2.646,2.153-4.799,4.799-4.799h83.169
				c2.646,0,4.799,2.153,4.799,4.799V108.883z"/>
			<path d="M271.286,0h-83.169c-14.179,0-25.714,11.535-25.714,25.714v83.169c0,14.179,11.535,25.714,25.714,25.714h83.169
				c14.179,0,25.714-11.535,25.714-25.714V25.714C297,11.535,285.465,0,271.286,0z M276.085,108.883
				c0,2.646-2.153,4.799-4.799,4.799h-83.169c-2.646,0-4.799-2.153-4.799-4.799V25.714c0-2.646,2.153-4.799,4.799-4.799h83.169
				c2.646,0,4.799,2.153,4.799,4.799V108.883z"/>
			<path d="M108.883,162.402H25.714C11.535,162.402,0,173.938,0,188.117v83.169C0,285.465,11.535,297,25.714,297h83.169
				c14.179,0,25.714-11.535,25.714-25.714v-83.169C134.598,173.938,123.062,162.402,108.883,162.402z M113.682,271.286
				c0,2.646-2.153,4.799-4.799,4.799H25.714c-2.646,0-4.799-2.153-4.799-4.799v-83.169c0-2.646,2.153-4.799,4.799-4.799h83.169
				c2.646,0,4.799,2.153,4.799,4.799V271.286z"/>
			<path d="M271.286,162.402h-83.169c-14.179,0-25.714,11.535-25.714,25.714v83.169c0,14.179,11.535,25.714,25.714,25.714h83.169
				C285.465,297,297,285.465,297,271.286v-83.169C297,173.938,285.465,162.402,271.286,162.402z M276.085,271.286
				c0,2.646-2.153,4.799-4.799,4.799h-83.169c-2.646,0-4.799-2.153-4.799-4.799v-83.169c0-2.646,2.153-4.799,4.799-4.799h83.169
				c2.646,0,4.799,2.153,4.799,4.799V271.286z"/>
		</g>
	</g>
</g>
<g>
</g>
<g>
</g>
<g>
</g>
<g>
</g>
<g>
</g>
<g>
</g>
<g>
</g>
<g>
</g>
<g>
</g>
<g>
</g>
<g>
</g>
<g>
</g>
<g>
</g>
<g>
</g>
<g>
</g>
</svg>
