<svg width="23" height="21" viewBox="0 0 23 21" fill="none" xmlns="http://www.w3.org/2000/svg">
<path d="M22.8516 0.453125H15.6719L15.3141 0.8125V15.05L15.5719 16.9172H15.2891V17.1078H15.0492V16.8688H14.5726V17.0594H14.3289V16.7727H13.95V17.0117H13.0859L11.5078 16.725V16.0063H12.1773L12.4133 14.8578H14.5437C14.6142 14.8578 14.6818 14.8298 14.7316 14.78C14.7814 14.7302 14.8094 14.6626 14.8094 14.5922V4.11562C14.8095 4.08079 14.8027 4.04627 14.7893 4.01409C14.776 3.9819 14.7564 3.95268 14.7317 3.92812C14.707 3.90355 14.6777 3.88414 14.6454 3.871C14.6131 3.85786 14.5786 3.85125 14.5437 3.85156H1.24218C1.17221 3.85177 1.10517 3.87966 1.05569 3.92913C1.00621 3.97861 0.978325 4.04565 0.978119 4.11562V14.5938C0.978119 14.7398 1.09687 14.8594 1.24374 14.8594H3.59921L3.75546 16.0078H4.85546L2.19921 18.6641L1.64843 19.8359C1.64843 19.8359 3.94531 20.6977 6.86562 20.6977C9.78515 20.6977 14.4281 20.0281 15.05 20.0281H18.8312V19.0703L18.7242 18.2367H20.0867C19.9305 18.3195 19.8367 18.4273 19.8367 18.5461V19.3102C19.8367 19.5758 20.3078 19.7891 20.8914 19.7891C21.4719 19.7891 21.9461 19.5781 21.9461 19.3109V18.5453C21.9461 18.2812 21.4734 18.0688 20.8914 18.0688C20.7453 18.0688 20.6078 18.0844 20.482 18.1078V17.975H18.693L18.65 17.6367H22.8555L22.8516 0.453125ZM1.93515 13.7578V4.80781H13.7086V13.7578H1.93593H1.93515Z" fill="#3E4940"/>
</svg>
