<svg width="129" height="124" viewBox="0 0 129 124" fill="none" xmlns="http://www.w3.org/2000/svg">
<path d="M64.5 0.727295C55.7045 0.727295 48.8331 3.96451 43.8857 10.4389C38.9382 16.9134 36.4645 25.1897 36.4645 35.2678C36.4034 47.7891 40.4347 57.7145 48.5582 65.0441C49.5966 66.0213 49.9631 67.2735 49.6577 68.8004L47.5504 73.1982C46.8786 74.6641 45.886 75.8093 44.5728 76.6339C43.2596 77.4585 40.4957 78.6342 36.2812 80.1612C36.098 80.2223 32.2347 81.4744 24.6914 83.9176C17.1481 86.3608 13.1321 87.7046 12.6435 87.9489C7.51278 90.0867 4.15341 92.3161 2.56534 94.6371C0.855114 98.4851 0 108.227 0 123.864H129C129 108.227 128.145 98.4851 126.435 94.6371C124.847 92.3161 121.487 90.0867 116.357 87.9489C115.868 87.7046 111.852 86.3608 104.309 83.9176C96.7653 81.4744 92.902 80.2223 92.7188 80.1612C88.5043 78.6342 85.7404 77.4585 84.4272 76.6339C83.114 75.8093 82.1215 74.6641 81.4496 73.1982L79.3423 68.8004C79.0369 67.2735 79.4034 66.0213 80.4418 65.0441C88.5653 57.7145 92.5966 47.7891 92.5355 35.2678C92.5355 25.1897 90.0618 16.9134 85.1143 10.4389C80.1669 3.96451 73.2955 0.727295 64.5 0.727295Z" fill="#494949"/>
</svg>
