<svg width="25" height="21" viewBox="0 0 25 21" fill="none" xmlns="http://www.w3.org/2000/svg">
<path d="M9.35858 0.706256V18.9844L13.4359 20.2977V4.96641C13.4359 4.24532 13.7539 3.76563 14.2664 3.93204C14.9258 4.12344 15.0562 4.78282 15.0562 5.50313V11.6227C17.6 12.8641 19.6008 11.6188 19.6008 8.33907C19.6008 4.96641 18.4289 3.46797 14.9789 2.26797C13.6156 1.79922 11.0922 1.03047 9.36327 0.705475L9.35858 0.706256ZM14.2094 17.625L20.7687 15.2524C21.5125 14.9844 21.6273 14.6024 21.025 14.4024C20.4148 14.2031 19.3195 14.2555 18.5664 14.5281L14.1883 16.0906V13.6039L14.4359 13.5188C14.4359 13.5188 15.6891 13.0805 17.4711 12.8758C19.2375 12.6891 21.4148 12.9078 23.1359 13.5633C25.0609 14.1906 25.2641 15.0977 24.7758 15.725C24.2914 16.3469 23.0875 16.8031 23.0875 16.8031L14.1883 20.0375V17.6445L14.2094 17.625ZM1.88437 17.3773C-0.0976654 16.8078 -0.422665 15.6398 0.475772 14.9555C1.31015 14.3492 2.72187 13.8617 2.72187 13.8617L8.57265 11.7656V14.1742L4.38202 15.7086C3.6453 15.9899 3.52343 16.368 4.13437 16.5672C4.74452 16.7711 5.83827 16.7266 6.57187 16.4453L8.58983 15.7086V17.8688C8.46796 17.8977 8.32499 17.9133 8.1828 17.9461C6.16483 18.2891 4.02421 18.15 1.89608 17.4461L1.88437 17.3773Z" fill="#3E4940"/>
</svg>
