<svg id="_x35_0" enable-background="new 0 0 512 512" height="512" viewBox="0 0 512 512" width="512" xmlns="http://www.w3.org/2000/svg"><g><circle cx="256" cy="256" fill="#6c7ed5" r="256"/><g><g><g><path d="m154.643 255.065h158.631l-72.171-154.511c-9.441-20.212-29.731-33.128-52.038-33.128h-85.502c-17.034 0-28.299 17.695-21.09 33.128z" fill="#57409b"/><g fill="#6052a3"><path d="m191.207 255.065h-36.564l-72.172-154.511c-7.209-15.433 4.056-33.128 21.09-33.128z"/><path d="m313.273 255.065h-36.564l-87.645-187.64c22.308 0 42.598 12.917 52.038 33.128z"/></g></g><g><path d="m357.357 255.065h-158.63l72.171-154.511c9.441-20.212 29.731-33.128 52.038-33.128h85.502c17.034 0 28.299 17.695 21.09 33.128z" fill="#6052a3"/><g fill="#7063ce"><path d="m320.793 255.065h36.564l72.171-154.511c7.209-15.433-4.056-33.128-21.09-33.128z"/><path d="m198.727 255.065h36.564l87.645-187.64c-22.308 0-42.598 12.917-52.038 33.128z"/></g></g></g><g><g><g><circle cx="255.998" cy="345.886" fill="#f9c744" r="136.1"/><path d="m255.998 481.985c75.166 0 136.1-60.934 136.1-136.1s-60.934-136.1-136.1-136.1z" fill="#fad98f"/></g><g><g><path d="m255.998 472.972c-70.076 0-127.087-57.011-127.087-127.086s57.011-127.087 127.087-127.087 127.087 57.011 127.087 127.087-57.011 127.086-127.087 127.086zm0-245.757c-65.435 0-118.671 53.236-118.671 118.671s53.236 118.67 118.671 118.67 118.671-53.235 118.671-118.67-53.235-118.671-118.671-118.671z" fill="#ea792e"/></g><g><path d="m255.998 472.972v-8.416c65.435 0 118.671-53.235 118.671-118.67s-53.236-118.671-118.671-118.671v-8.416c70.076 0 127.087 57.011 127.087 127.087s-57.011 127.086-127.087 127.086z" fill="#f39e22"/></g></g><g><circle cx="255.998" cy="345.886" fill="#ea792e" r="99.669"/><path d="m255.998 445.555c55.046 0 99.669-44.623 99.669-99.669s-44.623-99.669-99.669-99.669z" fill="#f39e22"/></g></g><g><g><path d="m301.432 345.885c0 25.09-20.341 45.437-45.43 45.437-.007 0-.007 0-.014 0-25.09-.007-45.423-20.355-45.423-45.437 0-25.09 20.333-45.43 45.423-45.437h.014c25.09 0 45.43 20.341 45.43 45.437z" fill="#f39e22"/></g><path d="m301.432 345.885c0 25.09-20.341 45.437-45.43 45.437-.007 0-.007 0-.014 0v-90.875h.014c25.09.001 45.43 20.342 45.43 45.438z" fill="#f9c744"/><path d="m300.476 355.217c2.849-13.391-.728-27.914-9.552-38.395l-.002.004c-4.124-4.951-9.279-9.012-15.138-11.851l.002-.001c-12.297-6.006-27.275-6.007-39.572 0l.002.001c-5.882 2.85-11.056 6.931-15.189 11.909v-.001c-8.806 10.493-12.361 25.025-9.485 38.408l.003-.003c1.048 4.979 2.912 9.657 5.445 13.889h-.007c6.986 11.771 19.464 20.026 33.053 21.752l-.005-.014c3.944.539 8.156.531 12.096-.02l-.005.013c13.587-1.774 26.025-10.072 32.975-21.866h-.01c2.505-4.219 4.35-8.875 5.384-13.83zm-14.793-39.015c1.359 1.359 2.605 2.8 3.75 4.302l-6.526 16.12c-.102.251-.17.509-.222.767-.172.005-.345.025-.516.079l-7.489 2.332c-.155.048-.295.118-.427.199-.164-.168-.342-.325-.537-.467l-15.221-11.059c-.197-.143-.405-.265-.618-.37.096-.318.096-9.88 0-10.199.213-.105.421-.227.618-.37l14.082-10.232c4.831 2.078 9.275 5.068 13.106 8.898zm-59.366 0c3.83-3.83 8.275-6.82 13.106-8.897l5.522 4.011v.003l8.56 6.219c.191.139.392.259.598.362-.1.354-.1 9.859 0 10.214-.099-.054-16.474 11.836-16.376 11.91-.122-.072-.251-.135-.391-.181l-7.458-2.439c-.199-.065-.399-.087-.597-.088-.05-.218-.118-.434-.204-.645l-6.554-16.109c1.157-1.524 2.418-2.984 3.794-4.36zm-11.732 36.525 13.297-11.212c.194-.164.367-.345.525-.536.302.137 7.91 2.679 8.178 2.641.024.349 6.071 19.076 6.29 19.273-.092.082-.178.173-.256.275l-3.399 4.488c-.13.172-.219.361-.284.554-.199-.019-.401-.03-.605-.02l-17.385.804c-3.253-4.911-5.411-10.434-6.361-16.267zm41.415 35.135c-2.497 0-4.958-.229-7.367-.653l-6.134-16.275c-.098-.261-.228-.503-.371-.734.065-.064.133-.122.19-.197l3.399-4.488c.109-.144.186-.299.249-.459.206.031.414.05.627.05h18.814c.23 0 .457-.019.678-.054.053.129.118.254.201.373l3.223 4.607c.092.132.198.247.314.348-.416.794-5.803 15.529-6.313 16.804-2.454.442-4.963.678-7.51.678zm35.131-18.988-17.386-.743c-.288-.012-.569.014-.845.058.237.169-3.431-4.97-3.428-4.992-.093-.132-.202-.245-.319-.346.071.159 6.389-19.308 6.266-19.262.385-.02 7.894-2.381 8.253-2.556.136.153.28.3.44.434l13.316 11.189c-.938 5.812-3.075 11.317-6.297 16.218z" fill="#c44a1a"/><path d="m301.39 344.03c-.788-24.117-21.336-43.78-45.402-43.582v64.662c.217-.026 10.24.063 10.096-.057-.207-.161 3.42 4.948 3.427 4.977.092.135.199.249.313.348-.412.796-5.801 15.534-6.313 16.807-2.457.442-4.972.676-7.522.675v3.462c15.81.143 31.171-8.674 39.103-22.281h.007c4.45-7.499 6.685-16.295 6.291-25.011zm-42.893-15.556c-.199-.142-.405-.263-.619-.37.092-.32.092-9.875 0-10.195.213-.107.419-.228.619-.37l14.077-10.238c6.525 2.783 12.521 7.451 16.857 13.202l-6.527 16.117c-.1.256-.171.512-.22.768-.171.007-.341.028-.512.078l-7.493 2.332c-.156.05-.292.121-.427.199-.164-.164-.341-.32-.533-.462zm32.633 40.404-17.383-.747c-.284-.014-.562.014-.832.057 0-.142-3.448-4.97-3.448-4.991-.092-.135-.199-.242-.313-.348.071.164 6.384-19.303 6.264-19.26.384-.021 7.892-2.382 8.254-2.552.135.149.277.299.441.434l13.316 11.183c-.938 5.815-3.078 11.318-6.299 16.224z" fill="#dd5e26"/></g><g><g><g><g><path d="m306.839 412.245c-.389.142-.832.135-1.237-.054-.809-.377-1.16-1.34-.782-2.149l22.418-48.076c3.116-6.682 3.443-14.178.921-21.107l-21.587-59.31c-.305-.839.127-1.767.967-2.073.839-.305 1.767.127 2.073.967l21.587 59.31c2.817 7.74 2.452 16.114-1.029 23.58l-22.418 48.076c-.189.404-.524.694-.913.836z" fill="#f9c744"/></g><g fill="#fbcb74"><path d="m320.248 374.967-1.542.561c-3.477 1.265-7.188-1.185-7.39-4.879l-.708-12.961c-.131-2.402 2.932-3.517 4.376-1.593l7.789 10.383c2.219 2.961.951 7.224-2.525 8.489z"/><path d="m328.286 327.412-1.261-.588c-2.842-1.325-3.598-5.018-1.504-7.353l7.343-8.192c1.361-1.518 3.865-.351 3.577 1.668l-1.555 10.891c-.443 3.104-3.758 4.899-6.6 3.574z"/><path d="m318.867 301.694-1.118-.521c-2.521-1.176-3.192-4.452-1.335-6.523l6.515-7.267c1.208-1.347 3.429-.311 3.173 1.48l-1.38 9.662c-.393 2.753-3.334 4.345-5.855 3.169z"/><path d="m310.814 286.668-1.16.422c-2.614.951-5.405-.891-5.557-3.669l-.532-9.745c-.099-1.806 2.205-2.645 3.29-1.198l5.856 7.808c1.67 2.225.717 5.431-1.897 6.382z"/><path d="m318.327 315.549-.588 1.261c-1.325 2.842-5.018 3.598-7.353 1.504l-8.192-7.343c-1.518-1.361-.351-3.865 1.668-3.577l10.891 1.555c3.104.444 4.899 3.758 3.574 6.6z"/><path d="m327.807 344.084-.868 1.126c-1.958 2.538-5.81 2.465-7.67-.145l-6.527-9.157c-1.21-1.697.515-3.933 2.464-3.194l10.514 3.988c2.996 1.137 4.045 4.844 2.087 7.382z"/><path d="m318.314 393.291-.561-1.542c-1.265-3.477 1.185-7.188 4.879-7.39l12.961-.708c2.402-.131 3.517 2.932 1.593 4.376l-10.383 7.789c-2.96 2.219-7.223.952-8.489-2.525z"/><path d="m333.824 360.678-.973-1.18c-2.193-2.66-1.195-6.681 1.986-8.008l11.163-4.653c2.069-.863 4.001 1.481 2.76 3.347l-6.696 10.07c-1.909 2.871-6.047 3.084-8.24.424z"/></g></g><g><g><path d="m205.158 412.245c.389.142.832.135 1.237-.054.809-.377 1.16-1.34.782-2.149l-22.418-48.076c-3.116-6.682-3.443-14.178-.921-21.107l21.587-59.31c.305-.839-.127-1.767-.967-2.073-.839-.305-1.767.127-2.073.967l-21.587 59.31c-2.817 7.74-2.452 16.114 1.029 23.58l22.418 48.076c.189.404.524.694.913.836z" fill="#f39e22"/></g><g fill="#f9c744"><path d="m191.749 374.967 1.542.561c3.477 1.265 7.188-1.185 7.39-4.879l.708-12.961c.131-2.402-2.932-3.517-4.376-1.593l-7.789 10.383c-2.219 2.961-.951 7.224 2.525 8.489z"/><path d="m183.711 327.412 1.261-.588c2.842-1.325 3.598-5.018 1.504-7.353l-7.343-8.192c-1.361-1.518-3.865-.351-3.577 1.668l1.555 10.891c.443 3.104 3.758 4.899 6.6 3.574z"/><path d="m193.13 301.694 1.118-.521c2.521-1.176 3.192-4.452 1.335-6.523l-6.515-7.267c-1.208-1.347-3.429-.311-3.173 1.48l1.38 9.662c.393 2.753 3.334 4.345 5.855 3.169z"/><path d="m201.183 286.668 1.16.422c2.614.951 5.405-.891 5.557-3.669l.532-9.745c.099-1.806-2.205-2.645-3.29-1.198l-5.856 7.808c-1.67 2.225-.717 5.431 1.897 6.382z"/><path d="m193.67 315.549.588 1.261c1.325 2.842 5.018 3.598 7.353 1.504l8.192-7.343c1.518-1.361.351-3.865-1.668-3.577l-10.891 1.555c-3.104.444-4.899 3.758-3.574 6.6z"/><path d="m184.19 344.084.868 1.126c1.958 2.538 5.81 2.465 7.67-.145l6.527-9.157c1.21-1.697-.515-3.933-2.464-3.194l-10.514 3.988c-2.996 1.137-4.045 4.844-2.087 7.382z"/><path d="m193.683 393.291.561-1.542c1.265-3.477-1.185-7.188-4.879-7.39l-12.961-.708c-2.402-.131-3.517 2.932-1.593 4.376l10.383 7.789c2.96 2.219 7.223.952 8.489-2.525z"/><path d="m178.173 360.678.973-1.18c2.193-2.66 1.195-6.681-1.986-8.008l-11.162-4.654c-2.069-.863-4.001 1.481-2.76 3.347l6.696 10.07c1.908 2.872 6.046 3.085 8.239.425z"/></g></g></g><g><g><g><path d="m275.63 266.987-8.716 6.331c-1.303.95-1.851 2.626-1.353 4.16l3.329 10.246c.389 1.191-.977 2.184-1.989 1.448l-8.716-6.334c-.65-.475-1.419-.709-2.187-.709s-1.537.234-2.187.709l-8.716 6.334c-1.013.736-2.379-.257-1.989-1.448l3.329-10.246c.498-1.534-.049-3.21-1.353-4.16l-8.716-6.331c-1.013-.739-.492-2.342.762-2.342h10.774c1.61 0 3.038-1.036 3.536-2.57l3.329-10.246c.195-.594.713-.894 1.23-.894s1.036.3 1.23.894l3.329 10.246c.498 1.534 1.927 2.57 3.536 2.57h10.774c1.256-.001 1.777 1.603.764 2.342z" fill="#c44a1a"/><path d="m275.63 266.987-8.716 6.331c-1.303.95-1.851 2.626-1.353 4.16l3.329 10.246c.389 1.191-.977 2.184-1.989 1.448l-8.716-6.334c-.65-.475-1.419-.709-2.187-.709v-31.195c.518 0 1.036.3 1.23.894l3.329 10.246c.498 1.534 1.927 2.57 3.536 2.57h10.774c1.255 0 1.776 1.604.763 2.343z" fill="#ea792e"/></g></g><g><g><path d="m236.367 424.785 8.716-6.331c1.303-.95 1.851-2.626 1.353-4.16l-3.329-10.246c-.389-1.191.977-2.184 1.989-1.448l8.716 6.334c.65.475 1.419.709 2.187.709s1.537-.234 2.187-.709l8.716-6.334c1.013-.736 2.379.257 1.989 1.448l-3.329 10.246c-.498 1.534.049 3.21 1.353 4.16l8.716 6.331c1.013.739.492 2.342-.762 2.342h-10.774c-1.61 0-3.038 1.036-3.536 2.57l-3.329 10.246c-.195.594-.713.894-1.23.894-.518 0-1.036-.3-1.23-.894l-3.329-10.246c-.498-1.534-1.927-2.57-3.536-2.57h-10.774c-1.256 0-1.777-1.603-.764-2.342z" fill="#ea792e"/><path d="m236.367 424.785 8.716-6.331c1.303-.95 1.851-2.626 1.353-4.16l-3.329-10.246c-.389-1.191.977-2.184 1.989-1.448l8.716 6.334c.65.475 1.419.709 2.187.709v31.195c-.518 0-1.036-.3-1.23-.894l-3.329-10.246c-.498-1.534-1.927-2.57-3.536-2.57h-10.774c-1.255-.001-1.776-1.604-.763-2.343z" fill="#c44a1a"/></g></g></g></g></g></g></g></svg>