<?xml version="1.0"?>
<svg xmlns="http://www.w3.org/2000/svg" xmlns:xlink="http://www.w3.org/1999/xlink" xmlns:svgjs="http://svgjs.com/svgjs" version="1.1" width="512" height="512" x="0" y="0" viewBox="0 0 512.001 512.001" style="enable-background:new 0 0 512 512" xml:space="preserve" class=""><g><g xmlns="http://www.w3.org/2000/svg"><g clip-rule="evenodd" fill="#b2f0fb" fill-rule="evenodd"><path d="m115.551 197.092-75.527-90.602-30.024 34.815 67.323 80.761z" fill="#81f983" data-original="#b2f0fb" style="" class=""/><path d="m115.551 197.092v294.256c17.521 2.587 35.917 4.818 54.754 6.562v-235.134z" fill="#81f983" data-original="#b2f0fb" style="" class=""/><path d="m341.697 262.776v235.135c18.837-1.744 37.233-3.975 54.754-6.562v-294.257z" fill="#81f983" data-original="#b2f0fb" style="" class=""/><path d="m396.451 197.092 38.227 24.974 67.324-80.761-30.025-34.815z" fill="#81f983" data-original="#b2f0fb" style="" class=""/></g><g fill="#020288"><path d="m509.574 134.774-61.11-70.862c-26.46-30.682-44.539-40.098-82.196-51.239l-41.364-12.237c-.921-.272-1.876-.411-2.837-.411h-132.133c-.96 0-1.916.138-2.837.411l-41.363 12.237c-37.658 11.141-55.737 20.557-82.196 51.239l-61.111 70.862c-3.195 3.705-3.241 9.176-.108 12.934l67.323 80.761c3.25 3.897 8.904 4.745 13.15 1.968l22.758-14.868v275.778c0 4.958 3.634 9.168 8.539 9.893 97.606 14.313 186.216 14.314 283.822 0 4.905-.724 8.539-4.934 8.539-9.892v-275.778l22.758 14.868c4.248 2.775 9.902 1.928 13.15-1.968l67.323-80.761c3.134-3.758 3.088-9.23-.107-12.935zm-203.97-114.749c-16.518 18.946-38.371 32.055-49.603 35.636-11.232-3.58-33.085-16.69-49.604-35.636zm127.092 188.802-26.246-17.146v-24.691c0-5.523-4.477-10-10-10s-10 4.477-10 10c.103 5.557-.074 300.033 0 315.69-90.002 12.409-170.898 12.409-260.9 0 .009-13.421-.006-313.439 0-315.69 0-5.522-4.477-9.999-10-9.999s-10 4.477-10 10v24.691l-26.246 17.146-56.194-67.413 55.574-64.441c23.561-27.322 38.108-34.881 72.724-45.122l31.539-9.331c21.56 29.644 53.992 50.299 73.054 53.507 19.058-3.201 51.502-23.87 73.054-53.507l31.539 9.331c34.615 10.24 49.163 17.8 72.724 45.122l55.573 64.441z" fill="#055621" data-original="#020288" style="" class=""/><path d="m317.815 103.964c-22.056 0-40 17.944-40 40 2.011 52.993 77.997 52.979 80-.001 0-22.055-17.943-39.999-40-39.999zm0 60.001c-11.028 0-20-8.972-20-20 1.006-26.496 38.998-26.489 40 0 0 11.028-8.972 20-20 20z" fill="#055621" data-original="#020288" style="" class=""/></g></g></g></svg>
