<svg width="25" height="25" viewBox="0 0 25 25" fill="none" xmlns="http://www.w3.org/2000/svg">
<path d="M4.27245 21.907C6.54656 23.9058 9.47214 25.0056 12.4998 25C15.6529 25 18.5303 23.8367 20.731 21.907C22.6842 19.9172 16.2349 12.8375 12.4998 10.0172C8.76854 12.8367 2.31542 19.9172 4.27245 21.907ZM15.8974 6.90547C18.5014 9.98984 23.6935 17.6469 22.2287 20.3531C24.0263 18.1325 25.0048 15.3609 24.9998 12.5039C24.9998 9.025 23.5803 5.87578 21.281 3.61328C21.281 3.61328 21.2521 3.58828 21.1959 3.56875C21.1015 3.53625 21.0019 3.52116 20.9021 3.52422C20.2889 3.52422 18.8357 3.975 15.8982 6.90547H15.8974ZM3.8037 3.56875C3.74745 3.58828 3.71854 3.61328 3.71385 3.61328C2.53489 4.77397 1.59913 6.15803 0.961288 7.68457C0.323444 9.2111 -0.00369043 10.8495 -0.000990503 12.5039C-0.000990503 15.4781 1.03651 18.2047 2.7701 20.3484C1.31385 17.6391 6.49745 9.98516 9.10526 6.90469C6.16776 3.97031 4.71073 3.52344 4.09667 3.52344C3.99636 3.5187 3.8962 3.53548 3.80292 3.57266L3.8037 3.56875ZM12.4998 3.69922C12.4998 3.69922 9.43182 1.90469 7.03495 1.81875C6.0951 1.78672 5.52167 2.12422 5.45135 2.17266C7.68573 0.671875 10.0615 0 12.4826 0H12.499C14.9326 0 17.2959 0.671875 19.5467 2.17266C19.4771 2.12344 18.9068 1.78594 17.9631 1.81875C15.5662 1.90391 12.4982 3.69453 12.4982 3.69453L12.4998 3.69922Z" fill="#3E4940"/>
</svg>
