<svg width="34" height="36" viewBox="0 0 34 36" fill="none" xmlns="http://www.w3.org/2000/svg">
<g clip-path="url(#clip0)">
<path d="M17 3.09094C14.6818 3.09094 12.8707 3.94416 11.5668 5.6506C10.2628 7.35704 9.6108 9.53839 9.6108 12.1946C9.5947 15.4948 10.6572 18.1108 12.7983 20.0426C13.072 20.3002 13.1686 20.6302 13.0881 21.0327L12.5327 22.1918C12.3556 22.5782 12.094 22.88 11.7479 23.0973C11.4018 23.3147 10.6733 23.6246 9.5625 24.027C9.5142 24.0431 8.49598 24.3731 6.50781 25.0171C4.51965 25.661 3.46117 26.0152 3.33239 26.0796C1.98011 26.643 1.0947 27.2306 0.676136 27.8424C0.225379 28.8566 0 31.4243 0 35.5455H34C34 31.4243 33.7746 28.8566 33.3239 27.8424C32.9053 27.2306 32.0199 26.643 30.6676 26.0796C30.5388 26.0152 29.4804 25.661 27.4922 25.0171C25.504 24.3731 24.4858 24.0431 24.4375 24.027C23.3267 23.6246 22.5982 23.3147 22.2521 23.0973C21.906 22.88 21.6444 22.5782 21.4673 22.1918L20.9119 21.0327C20.8314 20.6302 20.928 20.3002 21.2017 20.0426C23.3428 18.1108 24.4053 15.4948 24.3892 12.1946C24.3892 9.53839 23.7372 7.35704 22.4332 5.6506C21.1293 3.94416 19.3182 3.09094 17 3.09094Z" fill="#60BC4A"/>
</g>
<defs>
<clipPath id="clip0">
<rect width="34" height="35.5455" fill="white"/>
</clipPath>
</defs>
</svg>
