<svg width="38" height="34" viewBox="0 0 38 34" fill="none" xmlns="http://www.w3.org/2000/svg">
<g clip-path="url(#clip0)">
<path d="M34.8413 19.8787L37.96 6.15646C38.1851 5.16569 37.432 4.22222 36.416 4.22222H10.5033L9.89861 1.26601C9.74792 0.529163 9.09955 0 8.3474 0H1.58333C0.708872 0 0 0.708872 0 1.58333V2.63889C0 3.51335 0.708872 4.22222 1.58333 4.22222H6.19367L10.8281 26.8794C9.71936 27.517 8.97222 28.7126 8.97222 30.0833C8.97222 32.1237 10.6263 33.7778 12.6667 33.7778C14.7071 33.7778 16.3611 32.1237 16.3611 30.0833C16.3611 29.0493 15.9358 28.1151 15.2512 27.4444H29.0821C28.3975 28.1151 27.9722 29.0493 27.9722 30.0833C27.9722 32.1237 29.6263 33.7778 31.6667 33.7778C33.7071 33.7778 35.3611 32.1237 35.3611 30.0833C35.3611 28.6206 34.5109 27.3566 33.2778 26.758L33.6417 25.1565C33.8669 24.1657 33.1138 23.2222 32.0978 23.2222H14.3897L13.9579 21.1111H33.2973C34.0366 21.1111 34.6774 20.5996 34.8413 19.8787Z" fill="#404040"/>
</g>
<defs>
<clipPath id="clip0">
<rect width="38" height="33.7778" fill="white"/>
</clipPath>
</defs>
</svg>
